<svg xmlns="http://www.w3.org/2000/svg" version="1.1" xmlns:xlink="http://www.w3.org/1999/xlink" xmlns:svgjs="http://svgjs.com/svgjs" width="100mm" height="100mm"><svg width="100mm" height="100mm" viewBox="0 0 100 100" version="1.1" id="SvgjsSvg1016" inkscape:version="1.2 (dc2aedaf03, 2022-05-15)" sodipodi:docname="fafnir keyhole options.svg" xmlns:inkscape="http://www.inkscape.org/namespaces/inkscape" xmlns:sodipodi="http://sodipodi.sourceforge.net/DTD/sodipodi-0.dtd" xmlns="http://www.w3.org/2000/svg" xmlns:svg="http://www.w3.org/2000/svg">
  <sodipodi:namedview id="SvgjsSodipodi:namedview1015" pagecolor="#ffffff" bordercolor="#999999" borderopacity="1" inkscape:showpageshadow="0" inkscape:pageopacity="0" inkscape:pagecheckerboard="0" inkscape:deskcolor="#d1d1d1" inkscape:document-units="mm" showgrid="false" inkscape:zoom="1.1149729" inkscape:cx="3501.4305" inkscape:cy="137.67151" inkscape:window-width="1245" inkscape:window-height="1000" inkscape:window-x="-7" inkscape:window-y="0" inkscape:window-maximized="0" inkscape:current-layer="layer1"></sodipodi:namedview>
  <defs id="SvgjsDefs1014"></defs>
  <g inkscape:label="Layer 1" inkscape:groupmode="layer" id="SvgjsG1013" transform="translate(-880.00001)">
    <g id="SvgjsG1012" transform="matrix(-1,0,0,1,1643.545,9.6469749e-8)">
      <path style="stroke-width:1.19332" d="m 673.06614,66.946684 c 0,0 0.12441,-0.120259 0.12441,-0.120259 0,-0.120259 0.12441,-0.238653 0.23845,-0.357875 0,0 0.1244,-0.12026 0.1244,-0.12026 0.12441,-0.120259 0.23845,-0.238652 0.35871,-0.238652 0,0 0.1244,0 0.1244,-0.12026 0.12441,0 0.23845,-0.120259 0.35871,-0.120259 0,0 0,0 0,0 0,0 0,0 0,0 0.1244,0 0.1244,0 0.23844,0 0.12441,0 0.23845,0 0.35871,0 0,0 0.1244,0 0.1244,0 0.12441,0 0.23845,0.120259 0.35871,0.120259 0,0 0.12441,0.12026 0.12441,0.12026 0.1244,0.120259 0.23844,0.120259 0.3587,0.238652 0,0 0.12441,0.12026 0.12441,0.238653 0.1244,0.120259 0.1244,0.120259 0.23844,0.238653 l 0.59715,1.312693 2.86383,-5.131282 c 0.35871,-0.596735 0.95379,-0.95461 1.55094,-0.95461 0.59715,0 1.19222,0.357875 1.55093,0.835388 l 2.62538,4.415282 2.38653,-4.295956 c 0.23845,-0.477305 0.8356,-0.835388 1.43275,-0.954611 0.59715,0 1.19222,0.238653 1.55093,0.715958 l 1.78937,2.386631 7.39865,-23.031063 c -4.29595,-3.46063 -7.04056,-8.711218 -7.04056,-14.677825 0,-2.147978 0.3587,-4.176609 1.07404,-6.085914 l -7.6373,-9.785217 c -0.47689,-0.596735 -0.47689,-1.551346 0,-2.2673032 0.47689,-0.5967354 1.43274,-0.8353881 2.14787,-0.4773054 l 10.50134,4.8926076 c 0.8356,-0.835388 1.78938,-1.551346 2.86383,-2.147978 l -2.50595,-9.3078898 c -0.23845,-0.7159581 0.1244,-1.55134621 0.71533,-1.90922158 0.59715,-0.4773054 1.43275,-0.4773054 2.02783,0 l 12.17191,8.59189108 c 9.18864,1.1932633 16.46786,8.9498903 16.58708,18.4964333 0.95379,0.357876 2.50596,0.954611 4.17674,1.670569 l 2.02782,-2.267304 c 0.3587,-0.357876 0.95378,-0.596736 1.43274,-0.596736 0.59715,0 1.07405,0.358083 1.31249,0.835388 1.07404,1.551347 10.02383,15.274478 6.32461,22.673064 -0.23845,0.596736 -0.8356,0.954611 -1.43275,0.954611 -0.1244,0 -0.1244,0 -0.23844,0 -0.59715,0 -1.07404,-0.238653 -1.43275,-0.715958 l -2.62539,-3.341283 c -1.43274,0.954611 -3.10269,1.312693 -4.89269,1.312693 -3.46056,0 -7.51787,-1.312693 -10.97844,-2.863956 l 11.81383,36.63491 c 0,0.120259 0.12441,0.358082 0.12441,0.596735 0,6.324587 -8.94979,11.455848 -21.1217,12.291174 l 1.78938,1.909221 c 0.47689,0.477306 0.59715,1.193264 0.3587,1.789999 -0.23844,0.596736 -0.83559,1.074041 -1.43274,1.193264 -0.12441,0 -4.05731,0.477305 -9.06922,0.477305 -5.25057,0 -9.54652,-0.477305 -12.76864,-1.551346 -13.36518,-4.176609 -19.92844,-9.665891 -21.47978,-17.661129 0,-0.12026 0,-0.238653 0,-0.357876 v -4.2944 -8.591891 c 0.1244,-0.238653 0.23844,-0.477306 0.23844,-0.596736 z" id="SvgjsPath1011"></path>
      <path style="stroke-width:1.19332" d="m 673.06614,66.946684 c 0,0 0.12441,-0.120259 0.12441,-0.120259 0,-0.120259 0.12441,-0.238653 0.23845,-0.357875 0,0 0.1244,-0.12026 0.1244,-0.12026 0.12441,-0.120259 0.23845,-0.238652 0.35871,-0.238652 0,0 0.1244,0 0.1244,-0.12026 0.12441,0 0.23845,-0.120259 0.35871,-0.120259 0,0 0,0 0,0 0,0 0,0 0,0 0.1244,0 0.1244,0 0.23844,0 0.12441,0 0.23845,0 0.35871,0 0,0 0.1244,0 0.1244,0 0.12441,0 0.23845,0.120259 0.35871,0.120259 0,0 0.12441,0.12026 0.12441,0.12026 0.1244,0.120259 0.23844,0.120259 0.3587,0.238652 0,0 0.12441,0.12026 0.12441,0.238653 0.1244,0.120259 0.1244,0.120259 0.23844,0.238653 l 0.59715,1.312693 2.86383,-5.131282 c 0.35871,-0.596735 0.95379,-0.95461 1.55094,-0.95461 0.59715,0 1.19222,0.357875 1.55093,0.835388 l 2.62538,4.415282 2.38653,-4.295956 c 0.23845,-0.477305 0.8356,-0.835388 1.43275,-0.954611 0.59715,0 1.19222,0.238653 1.55093,0.715958 l 1.78937,2.386631 7.39865,-23.031063 c -4.29595,-3.46063 -7.04056,-8.711218 -7.04056,-14.677825 0,-2.147978 0.3587,-4.176609 1.07404,-6.085914 l -7.6373,-9.785217 c -0.47689,-0.596735 -0.47689,-1.551346 0,-2.2673032 0.47689,-0.5967354 1.43274,-0.8353881 2.14787,-0.4773054 l 10.50134,4.8926076 c 0.8356,-0.835388 1.78938,-1.551346 2.86383,-2.147978 l -2.50595,-9.3078898 c -0.23845,-0.7159581 0.1244,-1.55134621 0.71533,-1.90922158 0.59715,-0.4773054 1.43275,-0.4773054 2.02783,0 l 12.17191,8.59189108 c 9.18864,1.1932633 16.46786,8.9498903 16.58708,18.4964333 0.95379,0.357876 2.50596,0.954611 4.17674,1.670569 l 2.02782,-2.267304 c 0.3587,-0.357876 0.95378,-0.596736 1.43274,-0.596736 0.59715,0 1.07405,0.358083 1.31249,0.835388 1.07404,1.551347 10.02383,15.274478 6.32461,22.673064 -0.23845,0.596736 -0.8356,0.954611 -1.43275,0.954611 -0.1244,0 -0.1244,0 -0.23844,0 -0.59715,0 -1.07404,-0.238653 -1.43275,-0.715958 l -2.62539,-3.341283 c -1.43274,0.954611 -3.10269,1.312693 -4.89269,1.312693 -3.46056,0 -7.51787,-1.312693 -10.97844,-2.863956 l 11.81383,36.63491 c 0,0.120259 0.12441,0.358082 0.12441,0.596735 0,6.324587 -8.94979,11.455848 -21.1217,12.291174 l 1.78938,1.909221 c 0.47689,0.477306 0.59715,1.193264 0.3587,1.789999 -0.23844,0.596736 -0.83559,1.074041 -1.43274,1.193264 -0.12441,0 -4.05731,0.477305 -9.06922,0.477305 -5.25057,0 -9.54652,-0.477305 -12.76864,-1.551346 -13.36518,-4.176609 -19.92844,-9.665891 -21.47978,-17.661129 0,-0.12026 0,-0.238653 0,-0.357876 v -4.2944 -8.591891 c 0.1244,-0.238653 0.23844,-0.477306 0.23844,-0.596736 z" id="SvgjsPath1010"></path>
      <path style="fill:#ffffff;fill-opacity:1;stroke-width:1.19332" d="m 676.52671,80.074117 c 0.95378,4.653935 3.93788,10.02387 18.97382,14.797152 2.86384,0.95461 6.92114,1.431916 11.6944,1.431916 1.90964,0 3.58,-0.12026 5.01192,-0.12026 l -1.90964,-2.028651 c -0.12441,-0.12026 -0.23845,-0.238653 -0.23845,-0.238653 l -3.22191,-3.46063 -4.29596,2.267304 c -0.71533,0.357876 -1.67119,0.238653 -2.2673,-0.477305 l -4.65383,-6.085934 -3.34135,1.670569 c -0.83559,0.358082 -1.78937,0.120259 -2.2673,-0.596736 l -4.77326,-7.279239 -3.46078,2.028652 c -0.47689,0.238653 -0.95378,0.358083 -1.43274,0.120259 -0.4769,-0.120259 -0.8356,-0.477305 -1.07405,-0.95461 l -2.86383,-5.727935 v 0.715958 3.937957 z" id="SvgjsPath1009"></path>
      <path style="fill:#ffffff;fill-opacity:1;stroke-width:1.19332" d="m 676.52671,80.074117 c 0.95378,4.653935 3.93788,10.02387 18.97382,14.797152 2.86384,0.95461 6.92114,1.431916 11.6944,1.431916 1.90964,0 3.58,-0.12026 5.01192,-0.12026 l -1.90964,-2.028651 c -0.12441,-0.12026 -0.23845,-0.238653 -0.23845,-0.238653 l -3.22191,-3.46063 -4.29596,2.267304 c -0.71533,0.357876 -1.67119,0.238653 -2.2673,-0.477305 l -4.65383,-6.085934 -3.34135,1.670569 c -0.83559,0.358082 -1.78937,0.120259 -2.2673,-0.596736 l -4.77326,-7.279239 -3.46078,2.028652 c -0.47689,0.238653 -0.95378,0.358083 -1.43274,0.120259 -0.4769,-0.120259 -0.8356,-0.477305 -1.07405,-0.95461 l -2.86383,-5.727935 v 0.715958 3.937957 z" id="SvgjsPath1008"></path>
      <path style="fill:#ffffff;fill-opacity:1;stroke-width:1.19332" d="M 732.97067,82.341421 720.3227,40.097883 c -2.74461,1.431916 -5.25182,0.913635 -8.35451,0.913635 -3.10248,0 -5.13075,1.057024 -7.75593,-0.255566 l -13.12711,41.22747 1.19223,1.789999 3.10269,-1.670569 c 0.71533,-0.358083 1.67119,-0.12026 2.2673,0.477305 l 4.65383,6.085934 4.05731,-2.147978 c 0.71533,-0.358083 1.55093,-0.238653 2.14808,0.357876 l 3.69922,4.057282 c 12.05248,-0.120259 20.40574,-4.534609 20.76382,-8.591891 z" id="SvgjsPath1007" sodipodi:nodetypes="ccsccccccccccc"></path>
      <path style="fill:#ffffff;fill-opacity:1;stroke-width:1.19332" d="m 732.97067,82.341421 -1.581,-5.280442 -1.58099,-5.280443 -1.581,-5.280442 -1.581,-5.280442 -1.58099,-5.280442 -1.581,-5.280443 -3.14404,-10.500937 0.0549,-0.119115 c -2.74461,1.431916 -5.32466,0.972803 -8.42735,0.972803 -3.10248,0 -5.13075,1.057024 -7.75593,-0.255566 l -13.12711,41.22747 1.19223,1.789999 3.10269,-1.670569 c 0.71533,-0.358083 1.67119,-0.12026 2.2673,0.477305 l 4.65383,6.085934 4.05731,-2.147978 c 0.71533,-0.358083 1.55093,-0.238653 2.14808,0.357876 l 3.69922,4.057282 c 12.05248,-0.120259 20.40574,-4.534609 20.76382,-8.591891 l 1.3e-4,5e-6 1.3e-4,5e-6 1.3e-4,5e-6 1.3e-4,5e-6 1.3e-4,6e-6 1.3e-4,5e-6 1.3e-4,5e-6 z" id="SvgjsPath1006" sodipodi:nodetypes="cccccccccscccccccccccccccccc"></path>
      <path style="fill:#ffffff;fill-opacity:1;stroke-width:1.19332" d="m 738.34066,43.677881 -2.74461,-3.46063 -1.78937,1.670569 c -0.47689,0.477305 -1.31249,0.596735 -1.90964,0.357875 l -12.05269,-5.250608 c -0.6548,-0.994118 -0.88855,-1.521949 -0.86988,-2.575423 0.0181,-1.019621 1.34885,-1.123922 2.30284,-0.765839 l 11.09787,4.773282 2.38673,-2.147978 c 0.3587,-0.357876 0.83559,-0.477306 1.31249,-0.477306 0.47689,0 0.95378,0.238653 1.31248,0.715958 l 6.08575,7.875892 c -0.35871,-4.057283 -2.98326,-9.546543 -5.36979,-13.4845 l -1.31249,1.431917 c -0.47689,0.596735 -1.31248,0.715958 -2.02782,0.477305 -3.22191,-1.312693 -5.96673,-2.505957 -6.32461,-2.625283 -0.23844,-0.12026 -0.47689,-0.238653 -0.71533,-0.477306 -0.35871,-0.358082 -0.47689,-0.835388 -0.47689,-1.312693 v -0.835388 c 0,-8.353239 -6.92135,-15.274499 -15.39383,-15.274499 -3.46057,0 -6.68269,1.074041 -9.30787,3.102631 l 2.26731,1.07404 c 0.95378,0.357876 1.31248,1.431917 0.83559,2.386631 -0.3587,0.954611 -1.43274,1.312694 -2.38673,0.835388 l -9.66575,-4.415282 7.27922,9.307891 c 0.59715,0.835388 0.47689,1.909221 -0.3587,2.505977 -0.35871,0.238653 -0.71534,0.358083 -1.07404,0.358083 -0.4769,0 -1.07405,-0.238653 -1.43275,-0.715958 l -1.43275,-1.909222 c -0.1244,0.835388 -0.23844,1.670569 -0.23844,2.625284 0,8.353238 6.92113,15.274498 15.39382,15.274498 3.10249,0 6.08596,-0.954611 8.59192,-2.625304 v 0 c 0.1244,-0.12026 0.23844,-0.12026 0.3587,-0.238653 h 0.12441 0.1244 c 0.12441,0 0.23845,-0.120259 0.35871,-0.120259 v 0 h 0.3587 0.12441 c 0.1244,0 0.3587,0.120259 0.47689,0.120259 v 0 c 6.20518,3.10261 13.00709,5.489261 16.10978,3.818609 z" id="SvgjsPath1005" sodipodi:nodetypes="cccccscccscccccccssscccccccsccssssccssccssscc"></path>
      <path style="fill:#ffffff;fill-opacity:1;stroke-width:1.19332" d="m 738.34066,43.677881 -2.74461,-3.46063 -1.78937,1.670569 c -0.47689,0.477305 -1.31249,0.596735 -1.90964,0.357875 l -14.35209,-6.071641 c -0.95378,-0.358083 -0.60058,-1.669216 -0.24188,-2.623952 0.35871,-0.95461 1.43275,-1.312693 2.38674,-0.95461 l 12.68537,5.831615 2.38673,-2.147978 c 0.3587,-0.357876 0.83559,-0.477306 1.31249,-0.477306 0.47689,0 0.95378,0.238653 1.31248,0.715958 l 6.08575,7.875892 c -0.35871,-4.057283 -2.98326,-9.546543 -5.36979,-13.4845 l -1.31249,1.431917 c -0.47689,0.596735 -1.31248,0.715958 -2.02782,0.477305 -3.22191,-1.312693 -5.96673,-2.505957 -6.32461,-2.625283 -0.23844,-0.12026 -0.47689,-0.238653 -0.71533,-0.477306 -0.35871,-0.358082 -0.47689,-0.835388 -0.47689,-1.312693 v -0.835388 c 0,-8.353239 -6.92135,-15.274499 -15.39383,-15.274499 -3.46057,0 -6.68269,1.074041 -9.30787,3.102631 l 2.26731,1.07404 c 0.95378,0.357876 1.31248,1.431917 0.83559,2.386631 -0.3587,0.954611 -1.43274,1.312694 -2.38673,0.835388 l -9.66575,-4.415282 7.27922,9.307891 c 0.59715,0.835388 0.47689,1.909221 -0.3587,2.505977 -0.35871,0.238653 -0.71534,0.358083 -1.07404,0.358083 -0.4769,0 -1.07405,-0.238653 -1.43275,-0.715958 l -1.43275,-1.909222 c -0.1244,0.835388 -0.23844,1.670569 -0.23844,2.625284 0,8.353238 6.92113,15.274498 15.39382,15.274498 3.10249,0 6.08596,-0.954611 8.59192,-2.625304 0.67237,-0.303116 1.26073,-0.43237 1.92622,-0.238653 4.87083,1.355436 11.83013,5.827385 16.10978,3.818609 z" id="SvgjsPath1004" sodipodi:nodetypes="cccccscccscccccccssscccccccsccsscccc"></path>
      <path style="fill:#ffffff;fill-opacity:1;stroke-width:1.19332" d="m 705.16628,9.9069489 c 1.07404,-0.3580828 2.14808,-0.7159581 3.22212,-0.9546108 l -4.17673,-2.9833039 z" id="SvgjsPath1003"></path>
      <path style="fill:#ffffff;fill-opacity:1;stroke-width:1.19332" d="m 705.16628,9.9069489 c 1.07404,-0.3580828 2.14808,-0.7159581 3.22212,-0.9546108 l -4.17673,-2.9833039 z" id="SvgjsPath1002"></path>
      <path style="fill:#ffffff;fill-opacity:1;stroke-width:1.19332" d="m 689.65323,67.066944 -2.62538,4.653935 c -0.35871,0.596735 -0.95379,0.835388 -1.55094,0.835388 0,0 0,0 0,0 -0.59715,0 -1.1943,-0.238653 -1.55093,-0.835388 l -2.62518,-4.295935 -2.50595,4.534608 2.74461,5.727914 3.46056,-1.909222 c 0.8356,-0.477305 1.90964,-0.238653 2.38674,0.596736 l 1.07404,1.670568 2.86404,-8.830543 z" id="SvgjsPath1001"></path>
      <path style="fill:#ffffff;fill-opacity:1;stroke-width:1.19332" d="m 689.65323,67.066944 -2.62538,4.653935 c -0.35871,0.596735 -0.95379,0.835388 -1.55094,0.835388 0,0 0,0 0,0 -0.59715,0 -1.1943,-0.238653 -1.55093,-0.835388 l -2.62518,-4.295935 -2.50595,4.534608 2.74461,5.727914 3.46056,-1.909222 c 0.8356,-0.477305 1.90964,-0.238653 2.38674,0.596736 l 1.07404,1.670568 2.86404,-8.830543 z" id="SvgjsPath1000"></path>
    </g>
  </g>
</svg><style>@media (prefers-color-scheme: light) { :root { filter: none; } }
</style></svg>